<?xml version="1.0" encoding="UTF-8" standalone="no"?>
<!-- Created with Inkscape (http://www.inkscape.org/) -->

<svg
   width="180.27489mm"
   height="168.6351mm"
   viewBox="0 0 180.27489 168.6351"
   version="1.1"
   id="svg1"
   xml:space="preserve"
   xmlns:inkscape="http://www.inkscape.org/namespaces/inkscape"
   xmlns:sodipodi="http://sodipodi.sourceforge.net/DTD/sodipodi-0.dtd"
   xmlns="http://www.w3.org/2000/svg"
   xmlns:svg="http://www.w3.org/2000/svg"><sodipodi:namedview
     id="namedview1"
     pagecolor="#505050"
     bordercolor="#ffffff"
     borderopacity="1"
     inkscape:showpageshadow="0"
     inkscape:pageopacity="0"
     inkscape:pagecheckerboard="1"
     inkscape:deskcolor="#505050"
     inkscape:document-units="mm" /><defs
     id="defs1" /><g
     inkscape:label="Слой 1"
     inkscape:groupmode="layer"
     id="layer1"
     transform="translate(-10.146345,-32.094092)"><path
       style="fill:#ffcc00"
       d="m 85.202723,161.75319 v -3.46217 h 5.885693 5.885693 V 147.9045 137.51799 h 5.539481 5.53947 v 10.38651 10.38652 h 6.23191 6.23191 v 3.46217 3.46218 H 102.8598 85.202723 Z M 40.516221,132.6439 c -1.247046,-1.37797 -1.190633,-1.86496 2.3462,-20.25371 8.648553,-44.965681 9.105801,-47.125161 10.244792,-48.383731 1.094767,-1.20971 3.423672,-1.2714 47.996477,-1.2714 36.58371,0 47.10728,0.19114 48.03913,0.87253 0.72679,0.53144 1.84787,3.57662 2.86782,7.78989 0.92102,3.80455 4.49435,18.40771 7.94074,32.451471 3.4464,14.04376 6.26618,26.06979 6.26618,26.72452 0,0.65472 -0.56983,1.70609 -1.26629,2.33637 -1.1581,1.04807 -6.47306,1.14597 -62.21178,1.14597 -60.455311,0 -60.955778,-0.0113 -62.223269,-1.41191 z m 112.163269,-34.075351 -7.6791,-30.64023 -43.74752,-0.17827 c -24.061141,-0.0981 -43.747525,-0.0263 -43.747525,0.1594 0,0.18571 -2.648562,13.6943 -5.885693,30.01907 -3.237131,16.324771 -5.885693,30.041151 -5.885693,30.480831 0,0.59784 14.452199,0.79942 57.312321,0.79942 H 160.3586 Z M 50.581,124.3521 c 0,-0.38613 0.819994,-3.65788 1.82221,-7.27056 l 1.822209,-6.5685 h 14.796218 14.796217 v 7.27057 7.27056 H 67.199427 c -10.769259,0 -16.618427,-0.24711 -16.618427,-0.70207 z m 39.468764,-6.56849 v -7.27057 h 13.156256 13.15625 v 7.27057 7.27056 H 103.20602 90.049764 Z m 31.851986,0 v -7.27057 h 14.43535 14.43535 l 2.09766,7.27057 2.09767,7.27056 H 138.43477 121.90175 Z M 54.7948,100.99207 c 0.740472,-2.570661 1.665275,-5.842421 2.055118,-7.270561 l 0.708805,-2.59663 h 13.129566 13.129565 v 7.27056 7.270561 H 68.63317 53.448487 Z m 35.254964,-2.596631 v -7.27056 h 13.156256 13.15625 v 7.27056 7.270561 H 103.20602 90.049764 Z m 31.851986,0 v -7.27056 h 12.43713 12.43713 l 0.70881,2.59663 c 0.38984,1.42814 1.31464,4.6999 2.05512,7.270561 l 1.34631,4.67393 H 136.394 121.90175 Z M 57.505345,86.034949 c 0,-0.13359 0.294766,-1.14628 0.655037,-2.25041 0.36027,-1.10414 1.308251,-4.26659 2.106624,-7.02768 l 1.451588,-5.02015 h 11.04963 11.04963 v 7.27057 7.27056 H 70.661599 c -7.23594,0 -13.156254,-0.1093 -13.156254,-0.24289 z m 32.00087,-6.85457 0.197332,-7.09745 13.329363,-0.18806 13.32936,-0.18806 v 7.28551 7.28552 H 102.83558 89.308883 Z m 32.395535,-0.1731 v -7.27057 h 10.28074 10.28074 l 2.09767,7.27057 2.09767,7.27056 h -12.37841 -12.37841 z m 41.71918,10.33574 c -2.38025,-1.34912 -4.32772,-2.84798 -4.32772,-3.3308 0,-0.48282 0.81292,-1.63326 1.80649,-2.55653 l 1.80649,-1.67868 1.13636,1.67813 c 2.35998,3.48514 4.95227,8.36176 4.43943,8.3515 -0.29334,-0.006 -2.48081,-1.11451 -4.86105,-2.46362 z m -7.78769,-17.05882 c -1.23752,-5.06161 -2.68624,-9.90401 -3.21939,-10.7609 -0.9435,-1.51643 -1.28279,-1.55797 -12.72477,-1.55797 -7.74609,0 -11.75542,-0.2479 -11.75542,-0.72682 0,-1.3922 1.9747,-4.48133 4.26864,-6.67768 3.44366,-3.29715 7.82552,-5.02634 12.78206,-5.04412 8.17584,-0.0293 14.01277,3.46936 17.5297,10.50737 2.93845,5.88035 2.95101,11.13325 0.0406,16.95758 -1.14293,2.28721 -2.66155,4.68662 -3.3747,5.33201 -1.25339,1.13431 -1.37169,0.86648 -3.54668,-8.02947 z m 13.15405,-4.55757 v -2.71854 l 4.10733,1.12432 c 2.25903,0.61838 4.29634,1.31333 4.52735,1.54434 0.23101,0.23102 -1.07199,0.78571 -2.89557,1.23265 -1.82357,0.44695 -3.86088,0.97534 -4.52735,1.1742 -1.00969,0.30127 -1.21176,-0.0918 -1.21176,-2.35697 z m -47.91734,-20.95951 c -1.40959,-2.6428 -2.41339,-4.805091 -2.23066,-4.805091 0.71161,0 8.52189,4.157341 8.87077,4.721831 0.20334,0.32901 -0.63085,1.56349 -1.85375,2.74328 l -2.22347,2.14508 z m 41.75539,2.53765 -2.28162,-2.35403 4.78139,-2.84057 c 2.62976,-1.562318 5.02378,-2.840575 5.32003,-2.840575 0.48186,0 -3.93153,8.581155 -5.0755,9.868535 -0.25447,0.28637 -1.4894,-0.53864 -2.7443,-1.83336 z m -18.50622,-12.51291 c 0.7967,-2.843593 1.63057,-4.946863 1.85303,-4.673933 0.22247,0.27293 0.81733,2.210012 1.32193,4.304627 0.50459,2.094614 1.06219,4.197884 1.23911,4.673932 0.22716,0.611241 -0.58683,0.865543 -2.77048,0.865543 h -3.09215 z"
       id="path1" /><path
       style="fill:#ffcc00;stroke-width:0.638129"
       d="m 116.55881,199.1585 c -5.68292,-4.23499 -7.16008,-5.39928 -8.83715,-6.96522 -3.89597,-3.63793 -5.6332,-6.82218 -5.53387,-10.14348 0.0252,-0.84469 0.0486,-0.89595 0.42445,-0.93089 1.25143,-0.11641 4.90252,1.67432 8.05658,3.95125 3.09201,2.23223 5.63396,4.81449 7.33801,7.45437 0.77074,1.19397 1.5662,3.43628 1.68653,4.75403 0.0818,0.89508 -0.29706,2.81121 -0.66437,3.36066 -0.15028,0.22478 -0.30987,0.12914 -2.47015,-1.48078 z m 5.22946,-7.97941 c -3.38728,-1.96648 -5.69459,-4.29976 -6.46312,-6.53586 -0.20927,-0.60886 -0.34324,-1.16273 -0.29774,-1.23078 0.16954,-0.2536 2.30915,0.074 4.59673,0.70385 7.27235,2.00231 13.05334,5.1288 15.62972,8.45289 1.14326,1.47508 1.90049,4.53198 1.16471,4.70204 -0.1339,0.0309 -0.78621,-0.10773 -1.44959,-0.30811 -3.69958,-1.11769 -9.61187,-3.71216 -13.18071,-5.78403 z m -19.64365,-12.10052 c -0.2724,-0.92437 4.92679,-4.35825 8.74067,-5.77287 3.01744,-1.11923 7.01263,-1.8828 9.26385,-1.77058 2.03322,0.10138 4.43652,1.00173 4.78711,1.79339 l 0.19447,0.43906 -0.7555,0.32332 c -0.41552,0.17781 -2.25028,1.04487 -4.0773,1.9268 -4.51058,2.17734 -6.08848,2.77496 -9.28302,3.51586 -2.82863,0.65602 -4.45377,0.77725 -6.24245,0.46571 -1.2044,-0.20981 -2.55812,-0.68408 -2.62783,-0.92069 z m 23.4538,4.74403 c -0.67721,-0.55184 -1.19358,-1.26278 -1.06113,-1.46092 0.1528,-0.22862 2.38501,-0.68159 4.49913,-0.91299 8.16367,-0.89364 15.28133,0.045 19.05301,2.51273 1.91725,1.2544 3.05105,2.95672 2.25403,3.38429 -0.55298,0.29664 -6.62985,0.4555 -10.55421,0.27589 -3.75348,-0.17179 -6.68697,-0.60595 -9.18917,-1.36005 -1.43286,-0.43183 -4.18609,-1.77438 -5.00164,-2.43895 z m -3.35027,-3.58055 c 0.0951,-0.51721 1.82691,-2.55746 3.50384,-4.12831 4.08689,-3.82816 8.22137,-5.817 13.86539,-6.66984 2.19034,-0.33097 5.21246,-0.47318 5.62886,-0.2649 0.33094,0.16555 -0.68555,1.50111 -2.283,2.99956 -4.95708,4.64993 -10.28834,7.2357 -16.64117,8.07129 -2.28394,0.30039 -3.79374,0.42104 -3.99698,0.31939 -0.069,-0.0346 -0.10364,-0.18184 -0.0769,-0.32719 z m 16.80377,-1.08485 c 0.36987,-0.55328 3.92049,-1.90077 7.28422,-2.76443 2.6285,-0.6749 4.7757,-0.90892 7.48132,-0.81542 3.55116,0.12277 6.22958,0.72402 10.20139,2.29016 1.5559,0.61359 1.95764,0.85212 1.80907,1.07438 -0.19329,0.28913 -4.41756,1.66796 -6.61072,2.15779 -2.71754,0.60691 -4.37719,0.85498 -6.19044,0.92532 -1.82412,0.0707 -4.99492,-0.13218 -6.64606,-0.42531 -2.65565,-0.47148 -7.55489,-2.10426 -7.32878,-2.44249 z m 6.8868,-4.77947 c -0.0269,-0.51079 0.18437,-1.19172 1.01095,-3.25826 0.81428,-2.03572 3.37274,-5.9445 4.79336,-7.32328 1.30414,-1.26568 3.65014,-2.98659 5.25596,-3.85549 1.52214,-0.82361 5.49986,-2.34475 5.9642,-2.28081 1.21036,0.16667 -2.91419,7.71542 -5.83722,10.68324 -1.48337,1.50613 -3.41866,2.95929 -5.59057,4.19781 -2.13513,1.21753 -5.06995,2.50844 -5.3661,2.36028 -0.11485,-0.0574 -0.21845,-0.29293 -0.2306,-0.52349 z m 7.08853,0.37497 c -0.13206,-0.4275 1.87824,-2.06598 3.90135,-3.17976 1.6424,-0.90418 4.74039,-1.77277 7.18308,-2.01392 2.78529,-0.27496 10.52905,0.25199 11.29001,0.76828 0.4372,0.29652 0.11218,0.68088 -1.61724,1.91256 -1.87551,1.33572 -3.1444,1.89505 -5.574,2.45705 -2.80296,0.64835 -5.30272,0.77424 -10.24857,0.51608 -4.45692,-0.23261 -4.87638,-0.27174 -4.93463,-0.46029 z m 12.85365,-6.85676 c -0.18379,-0.29597 0.68961,-1.32051 3.26241,-3.82697 3.31772,-3.23215 6.44035,-5.44513 9.50082,-6.73317 2.16909,-0.91288 6.37004,-1.67393 6.66023,-1.20659 0.0811,0.13059 -0.26068,0.69192 -1.16877,1.91933 -2.68843,3.6341 -6.48158,6.97263 -9.64459,8.48873 -2.57846,1.2359 -8.14131,2.11369 -8.61017,1.35865 z m -0.65313,-5.63691 c -0.0717,-2.00144 0.61494,-7.81003 1.16086,-9.82042 1.05706,-3.89283 2.65183,-6.3985 5.06451,-7.95741 1.1426,-0.73827 1.35267,-0.67263 1.54728,0.48349 0.20726,1.23121 0.27946,4.43236 0.14276,6.33399 -0.0554,0.77045 -0.32372,2.26877 -0.59636,3.32961 -0.47323,1.84133 -0.56151,2.03353 -1.94708,4.23872 l -1.45135,2.30996 -1.1078,0.66807 c -1.18595,0.71519 -2.39294,1.21358 -2.63987,1.09005 -0.0834,-0.0417 -0.16116,-0.34589 -0.17296,-0.67605 z m 9.44368,-5.88775 c 0.0254,-0.16191 0.72264,-1.30283 1.54967,-2.53531 1.20871,-1.80228 1.78008,-2.51111 2.91582,-3.62053 1.64715,-1.60909 3.80122,-3.20387 5.28452,-3.91246 2.02649,-0.96806 5.77344,-1.37193 5.99754,-0.6464 0.0649,0.20982 -1.29784,2.36467 -1.57779,2.49505 -0.0658,0.0307 -0.60564,0.61667 -1.19945,1.30214 -1.24875,1.44157 -3.62137,3.623 -5.15759,4.74196 -2.00651,1.46149 -4.15504,2.38552 -6.12329,2.63344 -1.21796,0.15341 -1.76207,0.006 -1.68943,-0.45789 z m 5.71311,-11.10969 c -0.18383,-0.94632 0.0134,-3.48826 0.40204,-5.19542 0.26905,-1.18027 0.4169,-1.48116 1.57389,-3.20341 1.15215,-1.71481 1.37693,-1.97074 2.29948,-2.6156 0.56241,-0.39315 1.41489,-0.8762 1.89443,-1.07343 1.15745,-0.4761 3.08152,-0.80559 3.16303,-0.54169 0.0919,0.29756 -1.41781,4.69541 -2.37628,6.92212 -0.88356,2.05268 -1.40475,2.80022 -3.0727,4.40713 -1.26555,1.21925 -3.17448,2.33541 -3.61626,2.11443 -0.0667,-0.0334 -0.18722,-0.39976 -0.2677,-0.81416 z"
       id="path2"
       sodipodi:nodetypes="cssscsssccsssssssssssscssssssssssssssscssssssssscssssssssssssssssssssssscssscsccssssssscssssscsssssssscscsssssscc" /><path
       style="fill:#ffcc00;stroke-width:0.638129"
       d="m 84.008778,199.1585 c 5.68292,-4.23499 7.16008,-5.39928 8.83715,-6.96522 3.89597,-3.63793 5.6332,-6.82218 5.53387,-10.14348 -0.0252,-0.84469 -0.0486,-0.89595 -0.42445,-0.93089 -1.25143,-0.11641 -4.90252,1.67432 -8.05658,3.95125 -3.09201,2.23223 -5.63396,4.81449 -7.33801,7.45437 -0.77074,1.19397 -1.5662,3.43628 -1.68653,4.75403 -0.0818,0.89508 0.29706,2.81121 0.66437,3.36066 0.15028,0.22478 0.30987,0.12914 2.47015,-1.48078 z m -5.22946,-7.97941 c 3.38728,-1.96648 5.69459,-4.29976 6.46312,-6.53586 0.20927,-0.60886 0.34324,-1.16273 0.29774,-1.23078 -0.16954,-0.2536 -2.30915,0.074 -4.59673,0.70385 -7.27235,2.00231 -13.05334,5.1288 -15.62972,8.45289 -1.14326,1.47508 -1.90049,4.53198 -1.16471,4.70204 0.1339,0.0309 0.78621,-0.10773 1.44959,-0.30811 3.69958,-1.11769 9.61187,-3.71216 13.18071,-5.78403 z m 19.64365,-12.10052 c 0.2724,-0.92437 -4.92679,-4.35825 -8.74067,-5.77287 -3.01744,-1.11923 -7.01263,-1.8828 -9.26385,-1.77058 -2.03322,0.10138 -4.43652,1.00173 -4.78711,1.79339 l -0.19447,0.43906 0.7555,0.32332 c 0.41552,0.17781 2.25028,1.04487 4.0773,1.9268 4.51058,2.17734 6.08848,2.77496 9.28302,3.51586 2.82863,0.65602 4.45377,0.77725 6.24245,0.46571 1.2044,-0.20981 2.55812,-0.68408 2.62783,-0.92069 z m -23.4538,4.74403 c 0.67721,-0.55184 1.19358,-1.26278 1.06113,-1.46092 -0.1528,-0.22862 -2.38501,-0.68159 -4.49913,-0.91299 -8.16367,-0.89364 -15.28133,0.045 -19.05301,2.51273 -1.91725,1.2544 -3.05105,2.95672 -2.25403,3.38429 0.55298,0.29664 6.62985,0.4555 10.55421,0.27589 3.75348,-0.17179 6.68697,-0.60595 9.18917,-1.36005 1.43286,-0.43183 4.18609,-1.77438 5.00164,-2.43895 z m 3.35027,-3.58055 c -0.0951,-0.51721 -1.82691,-2.55746 -3.50384,-4.12831 -4.08689,-3.82816 -8.22137,-5.817 -13.86539,-6.66984 -2.19034,-0.33097 -5.21246,-0.47318 -5.62886,-0.2649 -0.33094,0.16555 0.68555,1.50111 2.283,2.99956 4.95708,4.64993 10.28834,7.2357 16.64117,8.07129 2.28394,0.30039 3.79374,0.42104 3.99698,0.31939 0.069,-0.0346 0.10364,-0.18184 0.0769,-0.32719 z m -16.80377,-1.08485 c -0.36987,-0.55328 -3.92049,-1.90077 -7.28422,-2.76443 -2.6285,-0.6749 -4.7757,-0.90892 -7.48132,-0.81542 -3.55116,0.12277 -6.22958,0.72402 -10.20139,2.29016 -1.5559,0.61359 -1.95764,0.85212 -1.80907,1.07438 0.19329,0.28913 4.41756,1.66796 6.61072,2.15779 2.71754,0.60691 4.37719,0.85498 6.19044,0.92532 1.82412,0.0707 4.99492,-0.13218 6.64606,-0.42531 2.65565,-0.47148 7.55489,-2.10426 7.32878,-2.44249 z m -6.8868,-4.77947 c 0.0269,-0.51079 -0.18437,-1.19172 -1.01095,-3.25826 -0.81428,-2.03572 -3.37274,-5.9445 -4.79336,-7.32328 -1.30414,-1.26568 -3.65014,-2.98659 -5.25596,-3.85549 -1.52214,-0.82361 -5.49986,-2.34475 -5.9642,-2.28081 -1.21036,0.16667 2.91419,7.71542 5.83722,10.68324 1.48337,1.50613 3.41866,2.95929 5.59057,4.19781 2.13513,1.21753 5.06995,2.50844 5.3661,2.36028 0.11485,-0.0574 0.21845,-0.29293 0.2306,-0.52349 z m -7.08853,0.37497 c 0.13206,-0.4275 -1.87824,-2.06598 -3.90135,-3.17976 -1.6424,-0.90418 -4.74039,-1.77277 -7.18308,-2.01392 -2.78529,-0.27496 -10.52905,0.25199 -11.29001,0.76828 -0.4372,0.29652 -0.11218,0.68088 1.61724,1.91256 1.87551,1.33572 3.1444,1.89505 5.574,2.45705 2.80296,0.64835 5.30272,0.77424 10.24857,0.51608 4.45692,-0.23261 4.87638,-0.27174 4.93463,-0.46029 z m -12.85365,-6.85676 c 0.18379,-0.29597 -0.68961,-1.32051 -3.26241,-3.82697 -3.31772,-3.23215 -6.44035,-5.44513 -9.50082,-6.73317 -2.16909,-0.91288 -6.37004,-1.67393 -6.66023,-1.20659 -0.0811,0.13059 0.26068,0.69192 1.16877,1.91933 2.68843,3.6341 6.48158,6.97263 9.64459,8.48873 2.57846,1.2359 8.14131,2.11369 8.61017,1.35865 z m 0.65313,-5.63691 c 0.0717,-2.00144 -0.61494,-7.81003 -1.16086,-9.82042 -1.05706,-3.89283 -2.65183,-6.3985 -5.06451,-7.95741 -1.1426,-0.73827 -1.35267,-0.67263 -1.54728,0.48349 -0.20726,1.23121 -0.27946,4.43236 -0.14276,6.33399 0.0554,0.77045 0.32372,2.26877 0.59636,3.32961 0.47323,1.84133 0.56151,2.03353 1.94708,4.23872 l 1.45135,2.30996 1.1078,0.66807 c 1.18595,0.71519 2.39294,1.21358 2.63987,1.09005 0.0834,-0.0417 0.16116,-0.34589 0.17296,-0.67605 z m -9.44368,-5.88775 c -0.0254,-0.16191 -0.72264,-1.30283 -1.54967,-2.53531 -1.20871,-1.80228 -1.78008,-2.51111 -2.91582,-3.62053 -1.64715,-1.60909 -3.80122,-3.20387 -5.28452,-3.91246 -2.02649,-0.96806 -5.773439,-1.37193 -5.997539,-0.6464 -0.0649,0.20982 1.297839,2.36467 1.577789,2.49505 0.0658,0.0307 0.60564,0.61667 1.19945,1.30214 1.24875,1.44157 3.62137,3.623 5.15759,4.74196 2.00651,1.46149 4.15504,2.38552 6.12329,2.63344 1.21796,0.15341 1.76207,0.006 1.68943,-0.45789 z m -5.71311,-11.10969 c 0.18383,-0.94632 -0.0134,-3.48826 -0.40204,-5.19542 -0.26905,-1.18027 -0.4169,-1.48116 -1.57389,-3.20341 -1.15215,-1.71481 -1.37693,-1.97074 -2.29948,-2.6156 -0.56241,-0.39315 -1.41489,-0.8762 -1.89443,-1.07343 -1.15745,-0.4761 -3.081519,-0.80559 -3.163029,-0.54169 -0.0919,0.29756 1.417809,4.69541 2.376279,6.92212 0.88356,2.05268 1.40475,2.80022 3.0727,4.40713 1.26555,1.21925 3.17448,2.33541 3.61626,2.11443 0.0667,-0.0334 0.18722,-0.39976 0.2677,-0.81416 z"
       id="path3"
       sodipodi:nodetypes="cssscsssccsssssssssssscssssssssssssssscssssssssscssssssssssssssssssssssscssscsccssssssscssssscsssssssscscsssssscc" /></g></svg>
